<mxfile host="app.diagrams.net" agent="Mozilla/5.0 (Windows NT 10.0; Win64; x64) AppleWebKit/537.36 (KHTML, like Gecko) Chrome/134.0.0.0 Safari/537.36" version="26.2.7">
  <diagram name="Page-1" id="zQt-rotJQUlOzZpmshgP">
    <mxGraphModel dx="1561" dy="964" grid="1" gridSize="10" guides="1" tooltips="1" connect="1" arrows="1" fold="1" page="1" pageScale="1" pageWidth="850" pageHeight="1100" math="0" shadow="0">
      <root>
        <mxCell id="0" />
        <mxCell id="1" parent="0" />
        <mxCell id="Q0FO-jOyB-rHWVfwx6GA-2" value="" style="verticalLabelPosition=bottom;verticalAlign=top;html=1;shape=mxgraph.basic.diag_snip_rect;dx=6;whiteSpace=wrap;" vertex="1" parent="1">
          <mxGeometry x="294.85" y="250" width="315.15" height="340" as="geometry" />
        </mxCell>
        <mxCell id="Q0FO-jOyB-rHWVfwx6GA-3" value="Tahun 2024" style="text;html=1;align=center;verticalAlign=middle;whiteSpace=wrap;rounded=0;" vertex="1" parent="1">
          <mxGeometry x="450" y="140" width="80" height="30" as="geometry" />
        </mxCell>
        <mxCell id="Q0FO-jOyB-rHWVfwx6GA-4" value="Penelitian Terkait" style="text;html=1;align=center;verticalAlign=middle;whiteSpace=wrap;rounded=0;fontStyle=1" vertex="1" parent="1">
          <mxGeometry x="375" y="270" width="135" height="30" as="geometry" />
        </mxCell>
        <mxCell id="Q0FO-jOyB-rHWVfwx6GA-7" value="&lt;ol style=&quot;line-height: 140%;&quot;&gt;&lt;li class=&quot;whitespace-normal break-words&quot;&gt;Enhanced RSA (ERSA) dengan kunci fleksibel untuk cloud computing (Amalarethinam, 2017)&lt;/li&gt;&lt;li class=&quot;whitespace-normal break-words&quot;&gt;Implementasi RSA berbasis sirkuit modular dengan teknik distribusi bit biner (Thabah, 2019)&lt;/li&gt;&lt;li class=&quot;whitespace-normal break-words&quot;&gt;Persamaan dekripsi RSA alternatif untuk eksponen privat besar (Somsuk, 2017)&lt;/li&gt;&lt;li class=&quot;whitespace-normal break-words&quot;&gt;RSA dengan algoritma genetika untuk pembangkitan bilangan prima (Qing, 2011)&lt;/li&gt;&lt;li class=&quot;whitespace-normal break-words&quot;&gt;Varian RSA dengan fungsi totient yang diperluas (Rahmani, 2024)&lt;/li&gt;&lt;li class=&quot;whitespace-normal break-words&quot;&gt;Kriptanalisis RSA dengan eksponen dekripsi terstruktur (Santosh Kumar, 2024)&lt;/li&gt;&lt;li class=&quot;whitespace-normal break-words&quot;&gt;Rabin-p: Modifikasi efisien dari algoritme Rabin untuk enkripsi (Asbullah, 2014)&lt;/li&gt;&lt;li class=&quot;whitespace-normal break-words&quot;&gt;Analisis ketahanan RSA terhadap serangan saluran samping (Wang, 2020)&lt;/li&gt;&lt;/ol&gt;" style="text;html=1;align=left;verticalAlign=middle;whiteSpace=wrap;rounded=0;" vertex="1" parent="1">
          <mxGeometry x="287.5" y="370" width="310" height="130" as="geometry" />
        </mxCell>
        <mxCell id="Q0FO-jOyB-rHWVfwx6GA-8" value="Penelitian Terkait" style="text;html=1;align=center;verticalAlign=middle;whiteSpace=wrap;rounded=0;fontStyle=1" vertex="1" parent="1">
          <mxGeometry x="740.07" y="260" width="135" height="30" as="geometry" />
        </mxCell>
        <mxCell id="Q0FO-jOyB-rHWVfwx6GA-12" value="" style="verticalLabelPosition=bottom;verticalAlign=top;html=1;shape=mxgraph.basic.diag_snip_rect;dx=6;whiteSpace=wrap;" vertex="1" parent="1">
          <mxGeometry x="650" y="250" width="352.57" height="340" as="geometry" />
        </mxCell>
        <mxCell id="Q0FO-jOyB-rHWVfwx6GA-9" value="&lt;div style=&quot;line-height: 140%;&quot;&gt;&lt;p style=&quot;background-color: transparent; color: light-dark(rgb(0, 0, 0), rgb(255, 255, 255)); display: inline !important;&quot; class=&quot;whitespace-pre-wrap break-words&quot;&gt;&lt;strong&gt;Varian Baru RSA Cryptosystem pada Pengamanan Instant Messaging&lt;/strong&gt;&lt;/p&gt;&lt;br style=&quot;background-color: transparent; color: light-dark(rgb(0, 0, 0), rgb(255, 255, 255));&quot;&gt;&lt;p style=&quot;background-color: transparent; color: light-dark(rgb(0, 0, 0), rgb(255, 255, 255));&quot; class=&quot;whitespace-pre-wrap break-words&quot;&gt;Target tahap awal:&lt;/p&gt;&lt;ul style=&quot;background-color: transparent; color: light-dark(rgb(0, 0, 0), rgb(255, 255, 255));&quot; depth=&quot;0&quot; class=&quot;[&amp;amp;:not(:last-child)_ul]:pb-1 [&amp;amp;:not(:last-child)_ol]:pb-1 list-disc space-y-1.5 pl-7&quot;&gt;&lt;li class=&quot;whitespace-normal break-words&quot;&gt;Mengembangkan formulasi matematis baru untuk varian RSA&lt;/li&gt;&lt;li class=&quot;whitespace-normal break-words&quot;&gt;Analisis teoritis terhadap kelemahan dan kekuatan algoritma RSA standar&lt;/li&gt;&lt;li class=&quot;whitespace-normal break-words&quot;&gt;Implementasi prototipe varian baru pada format data teks&lt;/li&gt;&lt;li class=&quot;whitespace-normal break-words&quot;&gt;Pengujian awal kinerja enkripsi/dekripsi pada data skala kecil&lt;/li&gt;&lt;li class=&quot;whitespace-normal break-words&quot;&gt;Pengembangan teknik segmentasi data adaptif untuk berbagai jenis data&lt;/li&gt;&lt;li class=&quot;whitespace-normal break-words&quot;&gt;Simulasi perbandingan kinerja dengan RSA standar&lt;/li&gt;&lt;/ul&gt;&lt;/div&gt;" style="text;html=1;align=left;verticalAlign=middle;whiteSpace=wrap;rounded=0;" vertex="1" parent="1">
          <mxGeometry x="672.57" y="370" width="310" height="130" as="geometry" />
        </mxCell>
        <mxCell id="Q0FO-jOyB-rHWVfwx6GA-5" value="Penelitian Sekarang" style="text;html=1;align=center;verticalAlign=middle;whiteSpace=wrap;rounded=0;fontStyle=1" vertex="1" parent="1">
          <mxGeometry x="765.07" y="260" width="127.5" height="30" as="geometry" />
        </mxCell>
        <mxCell id="Q0FO-jOyB-rHWVfwx6GA-20" value="Penelitian Terkait" style="text;html=1;align=center;verticalAlign=middle;whiteSpace=wrap;rounded=0;fontStyle=1" vertex="1" parent="1">
          <mxGeometry x="1160.0700000000002" y="245" width="135" height="30" as="geometry" />
        </mxCell>
        <mxCell id="Q0FO-jOyB-rHWVfwx6GA-21" value="" style="verticalLabelPosition=bottom;verticalAlign=top;html=1;shape=mxgraph.basic.diag_snip_rect;dx=6;whiteSpace=wrap;" vertex="1" parent="1">
          <mxGeometry x="1070" y="235" width="352.57" height="350" as="geometry" />
        </mxCell>
        <mxCell id="Q0FO-jOyB-rHWVfwx6GA-22" value="&lt;div style=&quot;line-height: 150%;&quot;&gt;&lt;p class=&quot;whitespace-pre-wrap break-words&quot;&gt;Target tahap lanjutan:&lt;/p&gt;&lt;ul depth=&quot;0&quot; class=&quot;[&amp;amp;:not(:last-child)_ul]:pb-1 [&amp;amp;:not(:last-child)_ol]:pb-1 list-disc space-y-1.5 pl-7&quot;&gt;&lt;li class=&quot;whitespace-normal break-words&quot;&gt;Optimasi algoritma berdasarkan hasil pengujian awal&lt;/li&gt;&lt;li class=&quot;whitespace-normal break-words&quot;&gt;Pengujian komprehensif pada berbagai format data (teks, gambar, suara)&lt;/li&gt;&lt;li class=&quot;whitespace-normal break-words&quot;&gt;Implementasi varian RSA pada prototipe aplikasi instant messaging&lt;/li&gt;&lt;li class=&quot;whitespace-normal break-words&quot;&gt;Uji ketahanan terhadap berbagai metode kriptanalisis modern&lt;/li&gt;&lt;li class=&quot;whitespace-normal break-words&quot;&gt;Pengujian skalabilitas dan performa pada kondisi jaringan beragam&lt;/li&gt;&lt;li class=&quot;whitespace-normal break-words&quot;&gt;Evaluasi user experience pada implementasi aplikasi real-time&lt;/li&gt;&lt;li class=&quot;whitespace-normal break-words&quot;&gt;Publikasi hasil penelitian di jurnal internasional bereputasi&lt;/li&gt;&lt;/ul&gt;&lt;/div&gt;" style="text;html=1;align=left;verticalAlign=middle;whiteSpace=wrap;rounded=0;" vertex="1" parent="1">
          <mxGeometry x="1092.5700000000002" y="365" width="310" height="130" as="geometry" />
        </mxCell>
        <mxCell id="Q0FO-jOyB-rHWVfwx6GA-23" value="Penelitian Sekarang (lanjutan)" style="text;html=1;align=center;verticalAlign=middle;whiteSpace=wrap;rounded=0;fontStyle=1" vertex="1" parent="1">
          <mxGeometry x="1185.0700000000002" y="245" width="127.5" height="30" as="geometry" />
        </mxCell>
        <mxCell id="Q0FO-jOyB-rHWVfwx6GA-24" value="Penelitian Terkait" style="text;html=1;align=center;verticalAlign=middle;whiteSpace=wrap;rounded=0;fontStyle=1" vertex="1" parent="1">
          <mxGeometry x="1550.0700000000002" y="245" width="135" height="30" as="geometry" />
        </mxCell>
        <mxCell id="Q0FO-jOyB-rHWVfwx6GA-25" value="" style="verticalLabelPosition=bottom;verticalAlign=top;html=1;shape=mxgraph.basic.diag_snip_rect;dx=6;whiteSpace=wrap;" vertex="1" parent="1">
          <mxGeometry x="1460" y="235" width="352.57" height="370" as="geometry" />
        </mxCell>
        <mxCell id="Q0FO-jOyB-rHWVfwx6GA-26" value="&lt;div style=&quot;line-height: 150%;&quot;&gt;&lt;p class=&quot;whitespace-pre-wrap break-words&quot;&gt;Roadmap penelitian ini sejalan dengan rencana strategis perguruan tinggi dalam bidang:&lt;/p&gt;&lt;ul depth=&quot;0&quot; class=&quot;[&amp;amp;:not(:last-child)_ul]:pb-1 [&amp;amp;:not(:last-child)_ol]:pb-1 list-disc space-y-1.5 pl-7&quot;&gt;&lt;li class=&quot;whitespace-normal break-words&quot;&gt;Pengembangan sistem keamanan informasi pada era digital&lt;/li&gt;&lt;li class=&quot;whitespace-normal break-words&quot;&gt;Inovasi teknologi kriptografi untuk mendukung pertukaran data aman&lt;/li&gt;&lt;li class=&quot;whitespace-normal break-words&quot;&gt;Peningkatan keamanan komunikasi pada aplikasi mobile dan cloud&lt;/li&gt;&lt;li class=&quot;whitespace-normal break-words&quot;&gt;Adaptasi teknologi kriptografi pada kebutuhan lokal dan nasional&lt;/li&gt;&lt;li class=&quot;whitespace-normal break-words&quot;&gt;Pencapaian riset unggulan perguruan tinggi pada bidang keamanan siber dan kriptografi terapan&lt;/li&gt;&lt;li class=&quot;whitespace-normal break-words&quot;&gt;Pengembangan solusi teknologi yang mendukung transformasi digital di Indonesia&lt;/li&gt;&lt;li class=&quot;whitespace-normal break-words&quot;&gt;Kontribusi dalam memperkuat infrastruktur keamanan informasi nasional&lt;/li&gt;&lt;/ul&gt;&lt;/div&gt;" style="text;html=1;align=left;verticalAlign=middle;whiteSpace=wrap;rounded=0;" vertex="1" parent="1">
          <mxGeometry x="1481.2800000000002" y="375" width="310" height="130" as="geometry" />
        </mxCell>
        <mxCell id="Q0FO-jOyB-rHWVfwx6GA-27" value="Relevansi Roadmap PT dengan Roadmap Peneliti" style="text;html=1;align=center;verticalAlign=middle;whiteSpace=wrap;rounded=0;fontStyle=1" vertex="1" parent="1">
          <mxGeometry x="1575.0700000000002" y="245" width="127.5" height="30" as="geometry" />
        </mxCell>
        <mxCell id="Q0FO-jOyB-rHWVfwx6GA-28" value="" style="endArrow=none;dashed=1;html=1;rounded=0;" edge="1" parent="1">
          <mxGeometry width="50" height="50" relative="1" as="geometry">
            <mxPoint x="1034" y="638" as="sourcePoint" />
            <mxPoint x="1034" y="100" as="targetPoint" />
          </mxGeometry>
        </mxCell>
      </root>
    </mxGraphModel>
  </diagram>
</mxfile>
